<?xml version="1.0" standalone="no"?>
<!DOCTYPE svg PUBLIC "-//W3C//DTD SVG 20010904//EN"
 "http://www.w3.org/TR/2001/REC-SVG-20010904/DTD/svg10.dtd">
<svg version="1.0" xmlns="http://www.w3.org/2000/svg"
 width="1059.000000pt" height="1280.000000pt" viewBox="0 0 1059.000000 1280.000000"
 preserveAspectRatio="xMidYMid meet">
<metadata>
Created by potrace 1.15, written by Peter Selinger 2001-2017
</metadata>
<g transform="translate(0.000000,1280.000000) scale(0.100000,-0.100000)"
fill="#000000" stroke="none">
<path d="M8915 12773 c-5 -21 -1 -31 17 -45 13 -10 26 -18 29 -18 19 0 78
-114 93 -179 16 -68 16 -79 0 -159 -19 -98 -38 -142 -59 -142 -19 0 -102 85
-162 167 -26 34 -70 78 -98 97 -79 52 -224 122 -283 136 -52 12 -255 20 -265
10 -3 -3 -8 -17 -12 -31 -6 -25 -1 -29 91 -78 105 -57 117 -68 169 -154 l35
-59 -2 -171 -3 -172 -43 -3 c-66 -5 -178 24 -231 60 -25 17 -87 64 -138 105
-99 79 -133 130 -133 202 0 34 -22 83 -33 71 -24 -27 -65 -109 -88 -179 -38
-111 -39 -204 -4 -342 20 -80 36 -117 79 -182 82 -127 168 -213 285 -285 92
-56 119 -67 259 -104 157 -42 157 -42 381 -48 l224 -5 -154 -63 c-297 -122
-710 -385 -930 -592 -134 -126 -219 -243 -361 -500 -71 -127 -102 -200 -176
-405 -49 -137 -123 -358 -163 -490 -114 -376 -259 -762 -397 -1050 -65 -137
-129 -275 -141 -306 -36 -92 -217 -257 -396 -364 -87 -52 -158 -70 -385 -100
-186 -24 -305 -20 -439 15 -153 41 -184 66 -245 189 -26 52 -81 184 -122 295
-42 111 -93 244 -116 295 -22 52 -62 167 -90 255 -36 117 -109 294 -264 649
l-215 487 -155 222 c-202 288 -424 536 -663 742 -138 118 -197 161 -351 253
l-185 110 -235 56 c-221 53 -249 57 -475 73 l-240 17 -290 -43 -290 -43 -196
-82 -196 -82 -204 -155 c-183 -139 -222 -175 -378 -342 -159 -170 -181 -197
-247 -315 -40 -71 -112 -223 -159 -337 -73 -175 -93 -236 -126 -383 l-39 -174
0 -296 c0 -223 5 -343 19 -483 l20 -188 73 -160 c61 -135 86 -177 155 -263 69
-88 94 -111 165 -154 87 -52 143 -68 184 -53 42 17 33 66 -40 204 -55 104 -72
149 -115 306 -48 179 -50 191 -61 395 l-12 210 32 185 c28 165 106 473 133
524 14 28 79 117 82 114 1 -2 -4 -48 -11 -103 -8 -61 -13 -202 -14 -365 l0
-266 48 -239 49 -240 108 -165 c60 -91 121 -181 136 -200 27 -34 28 -38 39
-245 11 -197 15 -221 56 -380 31 -120 68 -227 125 -365 82 -195 82 -195 158
-273 70 -71 79 -77 108 -71 49 10 57 40 33 134 -11 43 -38 165 -61 272 -39
186 -40 202 -50 475 -9 272 -9 289 15 476 14 107 32 212 41 233 l15 38 67
-114 67 -114 -47 -137 -47 -138 55 -148 c30 -81 69 -183 88 -226 l34 -78 -24
-79 -25 -79 32 -148 c18 -81 43 -170 56 -198 17 -37 30 -101 49 -245 25 -191
26 -198 90 -360 53 -135 75 -177 118 -230 47 -57 57 -65 87 -65 31 0 35 3 38
30 2 16 -6 118 -18 225 -12 108 -20 206 -18 217 3 19 12 14 89 -41 47 -33 95
-68 107 -76 20 -14 25 -37 52 -254 31 -236 32 -240 86 -376 45 -111 60 -140
82 -151 15 -7 30 -15 34 -17 4 -2 14 20 22 49 20 66 20 194 1 364 -8 72 -15
151 -15 177 l0 48 53 -32 c59 -36 82 -53 132 -97 l35 -31 36 -232 c26 -172 49
-278 85 -403 58 -198 60 -205 96 -250 29 -36 47 -34 62 7 4 13 19 -18 44 -97
21 -63 42 -115 46 -115 4 0 47 25 97 56 49 31 94 58 100 61 7 2 13 -18 17 -55
9 -82 68 -188 117 -208 21 -9 48 -13 67 -9 l33 6 2 117 c0 64 1 123 1 130 -1
23 12 11 77 -69 36 -45 68 -82 71 -84 3 -2 48 13 100 35 51 21 97 36 101 34 4
-3 8 -20 8 -37 0 -52 12 -107 23 -107 5 0 41 18 80 40 38 22 71 39 72 38 2 -2
10 -50 19 -108 10 -58 20 -112 23 -120 3 -11 25 7 74 60 37 41 70 72 72 70 2
-3 21 -48 42 -100 21 -52 41 -99 45 -103 4 -4 52 31 106 78 l99 85 2 -32 c2
-18 6 -75 9 -125 3 -51 9 -93 14 -93 4 0 54 36 111 79 57 44 105 79 105 78 1
-1 52 -108 114 -237 62 -129 115 -237 118 -240 2 -3 34 28 71 69 l67 73 23
-78 c12 -44 34 -116 47 -161 l25 -82 152 -83 c83 -46 246 -126 362 -179 l210
-97 40 -241 c34 -201 38 -245 28 -265 -28 -54 -33 -146 -18 -356 8 -113 17
-227 20 -255 15 -130 23 -398 13 -433 -14 -53 -50 -86 -127 -116 -37 -15 -80
-39 -94 -54 -23 -24 -25 -30 -14 -52 20 -39 102 -79 165 -80 l53 0 -7 -67 c-9
-87 -41 -152 -92 -185 -21 -15 -88 -51 -148 -81 -62 -31 -144 -83 -190 -120
-79 -63 -82 -68 -97 -129 -17 -68 -29 -168 -21 -168 3 0 18 8 32 19 45 31 102
51 150 51 75 0 236 100 344 215 l57 60 1 -53 c0 -35 8 -68 24 -100 44 -86 70
-101 279 -157 144 -39 185 -53 193 -66 7 -11 -12 -48 -42 -79 -12 -14 -26 -37
-29 -52 -9 -35 7 -36 97 -8 34 11 88 20 118 20 40 1 66 7 95 25 79 49 182 27
214 -45 9 -21 39 -58 67 -83 59 -53 246 -150 406 -212 214 -81 278 -144 303
-295 9 -53 23 -83 35 -75 5 3 16 40 25 83 9 42 23 102 30 133 18 68 19 170 3
188 -11 11 -3 13 47 8 466 -44 573 -44 687 -1 65 25 121 28 156 10 40 -20 42
-20 42 5 0 26 -119 143 -189 186 -67 41 -133 61 -231 69 l-78 7 -12 41 c-15
51 -32 75 -109 153 -47 47 -69 63 -100 68 -47 8 -123 -2 -171 -22 -85 -36 -79
-36 -101 10 -15 30 -36 51 -77 76 -32 19 -77 51 -102 71 -48 40 -116 60 -328
96 -88 15 -103 20 -107 38 -29 136 -105 938 -105 1109 l0 134 86 24 87 24 61
156 c58 147 67 164 184 325 72 99 200 255 310 376 l187 208 116 282 116 283
149 50 149 50 245 187 c216 165 271 213 462 405 l217 218 140 227 c153 247
172 284 311 583 l93 200 67 380 68 380 -4 400 c-3 220 -9 432 -15 470 -13 95
-76 269 -147 412 -87 173 -217 477 -240 563 -28 103 -42 222 -42 359 0 89 3
112 12 103 21 -21 80 -13 146 18 77 36 104 65 148 160 34 72 35 78 41 230 5
130 2 179 -16 303 -37 246 -91 398 -200 567 -44 68 -66 123 -57 145 9 25 127
18 377 -20 294 -45 310 -49 334 -80 26 -31 82 -50 102 -33 18 14 14 30 -44
188 -44 119 -49 128 -117 198 -62 64 -161 141 -198 155 -9 3 -4 13 14 33 40
43 84 149 97 231 9 57 8 99 -4 200 -20 175 -19 241 5 294 15 34 20 66 20 140
0 107 -17 180 -57 240 -21 32 -28 37 -44 28 -13 -7 -19 -21 -19 -45 0 -49 -22
-93 -66 -135 -52 -48 -98 -74 -119 -65 -15 5 -16 18 -10 131 9 147 -3 223 -50
334 -27 63 -39 79 -69 94 -68 35 -77 15 -51 -112 13 -60 14 -84 4 -129 -15
-75 -45 -142 -63 -142 -44 0 -46 6 -46 154 0 218 -38 336 -126 395 -54 35 -53
35 -77 16 -17 -12 -18 -20 -8 -102 18 -144 15 -170 -27 -253 -35 -71 -39 -75
-71 -75 -32 0 -34 2 -72 90 -21 50 -49 119 -60 155 -23 69 -70 144 -155 251
-47 59 -58 68 -118 87 -92 30 -122 29 -131 -5z m-6447 -2876 c45 -12 82 -24
82 -27 0 -3 -41 -19 -90 -37 l-90 -32 -24 37 c-26 41 -56 98 -56 106 0 3 21
-2 48 -10 26 -8 84 -24 130 -37z m-698 -12 c0 -8 -19 -31 -42 -52 -83 -74
-103 -100 -120 -154 -26 -80 -30 -163 -14 -264 l13 -90 -173 -225 -173 -226
-79 -200 c-44 -109 -83 -192 -85 -184 -3 8 -17 112 -31 230 l-26 215 31 179
c16 99 33 184 36 190 50 87 205 291 277 364 86 88 99 98 230 163 76 38 142 69
147 69 5 0 9 -7 9 -15z m4783 -7011 l7 -175 76 -92 c43 -51 84 -97 91 -104 9
-7 35 -123 68 -305 30 -161 68 -360 85 -442 17 -82 29 -159 26 -171 -9 -35
-74 -103 -106 -110 -22 -5 -32 -15 -40 -41 -11 -31 -9 -36 12 -54 17 -14 39
-19 85 -20 34 0 65 -5 68 -11 4 -6 9 -37 12 -70 l6 -59 -154 0 c-248 1 -366
27 -453 103 -36 31 -40 38 -44 94 -2 33 3 172 12 309 9 137 20 395 26 574 9
282 13 342 35 451 24 119 28 129 66 170 22 24 55 63 72 86 18 23 35 43 38 43
3 0 9 -79 12 -176z m397 -1900 c0 -20 -25 -41 -68 -58 -45 -17 -132 -22 -132
-7 0 4 -11 24 -24 43 l-23 35 123 -1 c80 -1 124 -5 124 -12z m413 -23 c94 -9
114 -15 151 -40 53 -37 103 -47 150 -30 25 9 41 10 58 2 21 -9 18 -12 -35 -27
-31 -9 -116 -24 -188 -32 -121 -14 -134 -14 -175 2 -34 13 -51 28 -69 59 -27
45 -33 87 -12 80 6 -2 61 -9 120 -14z m852 -241 c14 -15 15 -20 4 -20 -8 0
-62 -5 -121 -11 -112 -12 -288 -3 -238 12 14 4 66 8 115 9 50 1 113 8 140 15
71 18 80 17 100 -5z"/>
</g>
</svg>
